<svg width="160" height="50" viewBox="0 0 160 50" fill="none" xmlns="http://www.w3.org/2000/svg">
<path d="M155 0H5C2.23858 0 0 2.23858 0 5V45C0 47.7614 2.23858 50 5 50H155C157.761 50 160 47.7614 160 45V5C160 2.23858 157.761 0 155 0Z" fill="black"/>
<path fill-rule="evenodd" clip-rule="evenodd" d="M31.4653 12.1511L31.1208 12.6578C33.7351 13.8444 35.5049 16.0917 35.5049 18.6635H18.2456C18.2456 16.0917 20.0154 13.8444 22.6316 12.6578L22.2851 12.1511L21.9405 11.6517L21.1727 10.5289C21.0791 10.3904 21.1184 10.2045 21.2589 10.1134C21.4012 10.0222 21.5922 10.0587 21.6877 10.1972L22.5117 11.4002L22.8582 11.905L23.2084 12.419C24.3227 11.998 25.5662 11.7629 26.8752 11.7629C28.1862 11.7629 29.4278 11.998 30.5421 12.419L30.8942 11.905L32.0665 10.1972C32.1583 10.0587 32.3512 10.0204 32.4916 10.1134C32.6339 10.2045 32.6733 10.3904 32.5778 10.5289L31.8099 11.6517L31.4653 12.1511ZM18.2456 19.863H18.3786H35.5049V33.0629C35.5049 34.1109 34.6322 34.9639 33.5535 34.9639H32.1433C32.192 35.1225 32.2201 35.2884 32.2201 35.4633V39.2636C32.2201 40.257 31.3904 41.0626 30.3679 41.0626C29.3473 41.0626 28.5195 40.257 28.5195 39.2636V35.4633C28.5195 35.2884 28.5457 35.1225 28.5925 34.9639H25.1579C25.2047 35.1225 25.2328 35.2884 25.2328 35.4633V39.2636C25.2328 40.257 24.4032 41.0626 23.3826 41.0626C22.3619 41.0626 21.5323 40.257 21.5323 39.2636V35.4633C21.5323 35.2884 21.5585 35.1225 21.6072 34.9639H20.1989C19.1202 34.9639 18.2456 34.1109 18.2456 33.0629V19.863ZM15.1628 19.863C14.1403 19.863 13.3125 20.6687 13.3125 21.662V29.3628C13.3125 30.3562 14.1403 31.1618 15.1628 31.1618C16.1834 31.1618 17.0112 30.3562 17.0112 29.3628V21.662C17.0112 20.6687 16.1834 19.863 15.1628 19.863ZM36.7388 21.662C36.7388 20.6687 37.5665 19.863 38.5891 19.863C39.6097 19.863 40.4375 20.6687 40.4375 21.662V29.3628C40.4375 30.3562 39.6097 31.1618 38.5891 31.1618C37.5665 31.1618 36.7388 30.3562 36.7388 29.3628V21.662ZM21.6758 16.2629C21.1646 16.2629 20.7509 15.8602 20.7509 15.3627C20.7509 14.8652 21.1646 14.4644 21.6758 14.4644C22.1869 14.4644 22.6007 14.8652 22.6007 15.3627C22.6007 15.8602 22.1869 16.2629 21.6758 16.2629ZM28.1486 15.3627C28.1486 15.8602 28.5623 16.2629 29.0735 16.2629C29.5846 16.2629 29.9984 15.8602 29.9984 15.3627C29.9984 14.8652 29.5846 14.4644 29.0735 14.4644C28.5623 14.4644 28.1486 14.8652 28.1486 15.3627Z" fill="white"/>
<path d="M50.6592 17V11.0015H52.7729C53.2446 11.0015 53.6533 11.0747 53.999 11.2212C54.3477 11.3647 54.626 11.5713 54.834 11.8408C55.042 12.1104 55.1943 12.4238 55.291 12.7812C55.3906 13.1357 55.4404 13.5386 55.4404 13.9897C55.4404 14.3472 55.4111 14.6753 55.3525 14.9741C55.2939 15.27 55.1973 15.5454 55.0625 15.8003C54.9277 16.0522 54.7578 16.2661 54.5527 16.4419C54.3506 16.6177 54.0986 16.7554 53.7969 16.855C53.4951 16.9517 53.1538 17 52.7729 17H50.6592ZM51.7227 16.1123H52.6455C53.2139 16.1123 53.6387 15.9438 53.9199 15.6069C54.2041 15.27 54.3462 14.7368 54.3462 14.0073C54.3462 13.6821 54.3169 13.395 54.2583 13.146C54.1997 12.897 54.106 12.6758 53.9771 12.4824C53.8481 12.2891 53.6709 12.1411 53.4453 12.0386C53.2227 11.936 52.9561 11.8848 52.6455 11.8848H51.7227V16.1123ZM56.9339 14.4248V13.625C56.9339 12.7754 57.1595 12.106 57.6106 11.6167C58.0618 11.1274 58.677 10.8828 59.4563 10.8828C60.2356 10.8828 60.8494 11.1274 61.2976 11.6167C61.7459 12.106 61.97 12.7754 61.97 13.625V14.4248C61.97 15.2686 61.7444 15.9292 61.2932 16.4067C60.845 16.8813 60.2283 17.1187 59.4431 17.1187C58.6609 17.1187 58.0471 16.8813 57.6018 16.4067C57.1565 15.9321 56.9339 15.2715 56.9339 14.4248ZM58.0061 14.4292C58.0061 15.0151 58.138 15.4604 58.4016 15.7651C58.6653 16.0669 59.0154 16.2178 59.4519 16.2178C59.8855 16.2178 60.2342 16.0669 60.4978 15.7651C60.7615 15.4604 60.8933 15.0151 60.8933 14.4292V13.6162C60.8933 13.0273 60.76 12.5747 60.4934 12.2583C60.2298 11.9419 59.8826 11.7837 59.4519 11.7837C59.0183 11.7837 58.6682 11.9419 58.4016 12.2583C58.138 12.5747 58.0061 13.0273 58.0061 13.6162V14.4292ZM63.1514 11.0015H64.3204L65.2872 15.4048H65.3267L66.4254 11.0015H67.3878L68.482 15.4048H68.5259L69.4883 11.0015H70.6573L69.0533 17H68.0777L66.9219 12.6802H66.8824L65.7266 17H64.751L63.1514 11.0015ZM72.076 17V11.0015H72.9945L75.7498 15.1982H75.785V11.0015H76.7957V17H75.8861L73.1219 12.79H73.0912V17H72.076ZM78.8429 17V11.0015H79.9064V16.0859H82.5167V17H78.8429ZM83.5971 14.4248V13.625C83.5971 12.7754 83.8227 12.106 84.2738 11.6167C84.725 11.1274 85.3402 10.8828 86.1195 10.8828C86.8988 10.8828 87.5126 11.1274 87.9608 11.6167C88.4091 12.106 88.6332 12.7754 88.6332 13.625V14.4248C88.6332 15.2686 88.4076 15.9292 87.9564 16.4067C87.5082 16.8813 86.8915 17.1187 86.1063 17.1187C85.3241 17.1187 84.7104 16.8813 84.265 16.4067C83.8197 15.9321 83.5971 15.2715 83.5971 14.4248ZM84.6693 14.4292C84.6693 15.0151 84.8012 15.4604 85.0648 15.7651C85.3285 16.0669 85.6786 16.2178 86.1151 16.2178C86.5487 16.2178 86.8974 16.0669 87.161 15.7651C87.4247 15.4604 87.5565 15.0151 87.5565 14.4292V13.6162C87.5565 13.0273 87.4232 12.5747 87.1566 12.2583C86.893 11.9419 86.5458 11.7837 86.1151 11.7837C85.6815 11.7837 85.3314 11.9419 85.0648 12.2583C84.8012 12.5747 84.6693 13.0273 84.6693 13.6162V14.4292ZM89.7531 17L91.801 11.0015H93.0095L95.0529 17H93.9147L93.405 15.3828H91.3351L90.8254 17H89.7531ZM91.568 14.5742H93.1764L92.3942 12.0781H92.3547L91.568 14.5742ZM96.5156 17V11.0015H98.6294C99.101 11.0015 99.5097 11.0747 99.8554 11.2212C100.204 11.3647 100.482 11.5713 100.69 11.8408C100.898 12.1104 101.051 12.4238 101.147 12.7812C101.247 13.1357 101.297 13.5386 101.297 13.9897C101.297 14.3472 101.268 14.6753 101.209 14.9741C101.15 15.27 101.054 15.5454 100.919 15.8003C100.784 16.0522 100.614 16.2661 100.409 16.4419C100.207 16.6177 99.955 16.7554 99.6533 16.855C99.3515 16.9517 99.0102 17 98.6294 17H96.5156ZM97.5791 16.1123H98.5019C99.0703 16.1123 99.4951 15.9438 99.7763 15.6069C100.061 15.27 100.203 14.7368 100.203 14.0073C100.203 13.6821 100.173 13.395 100.115 13.146C100.056 12.897 99.9624 12.6758 99.8335 12.4824C99.7046 12.2891 99.5273 12.1411 99.3017 12.0386C99.0791 11.936 98.8125 11.8848 98.5019 11.8848H97.5791V16.1123ZM104.947 17L106.995 11.0015H108.204L110.247 17H109.109L108.599 15.3828H106.529L106.02 17H104.947ZM106.762 14.5742H108.371L107.588 12.0781H107.549L106.762 14.5742ZM111.71 17V11.0015H114.048C114.66 11.0015 115.145 11.1846 115.502 11.5508C115.86 11.917 116.038 12.3872 116.038 12.9614C116.038 13.5386 115.858 14.0073 115.498 14.3677C115.14 14.728 114.654 14.9082 114.039 14.9082H112.773V17H111.71ZM112.773 14.0557H113.542C114.017 14.0557 114.371 13.9766 114.606 13.8184C114.84 13.6572 114.957 13.3716 114.957 12.9614C114.957 12.6128 114.862 12.3433 114.672 12.1528C114.481 11.9624 114.215 11.8672 113.872 11.8672H112.773V14.0557ZM117.633 17V11.0015H118.696V13.7524H118.745L121.118 11.0015H122.3L120.133 13.5767L122.401 17H121.109L119.351 14.293L118.696 15.0181V17H117.633ZM125.99 14.1655C125.99 13.1108 126.199 12.3022 126.618 11.7397C127.04 11.1743 127.609 10.8916 128.323 10.8916C128.613 10.8916 128.88 10.9385 129.123 11.0322C129.369 11.126 129.57 11.2505 129.725 11.4058C129.881 11.5581 130.004 11.7251 130.094 11.9067C130.185 12.0884 130.238 12.2729 130.253 12.4604H129.237C129.217 12.2817 129.122 12.1177 128.952 11.9683C128.785 11.8188 128.567 11.7441 128.297 11.7441C127.904 11.7441 127.591 11.9375 127.357 12.3242C127.125 12.7109 127.005 13.2529 126.996 13.9502H127.036C127.13 13.7129 127.301 13.5078 127.55 13.335C127.802 13.1621 128.111 13.0757 128.477 13.0757C128.726 13.0757 128.964 13.1196 129.189 13.2075C129.418 13.2954 129.621 13.4199 129.8 13.5811C129.982 13.7393 130.127 13.9458 130.235 14.2007C130.343 14.4526 130.398 14.731 130.398 15.0356C130.398 15.4634 130.301 15.8369 130.108 16.1562C129.914 16.4756 129.656 16.7158 129.334 16.877C129.015 17.0352 128.656 17.1143 128.257 17.1143C127.554 17.1143 127.001 16.8623 126.596 16.3584C126.192 15.8545 125.99 15.1235 125.99 14.1655ZM127.128 15.084C127.128 15.4502 127.238 15.7388 127.458 15.9497C127.677 16.1577 127.947 16.2617 128.266 16.2617C128.58 16.2617 128.843 16.1592 129.057 15.9541C129.271 15.749 129.378 15.459 129.378 15.084C129.378 14.7119 129.268 14.4219 129.048 14.2139C128.832 14.0029 128.568 13.8975 128.257 13.8975C127.938 13.8975 127.67 14.0044 127.453 14.2183C127.236 14.4321 127.128 14.7207 127.128 15.084ZM132.036 16.9165C131.916 16.8022 131.856 16.6543 131.856 16.4727C131.856 16.291 131.914 16.1445 132.032 16.0332C132.152 15.9219 132.3 15.8662 132.476 15.8662C132.657 15.8662 132.808 15.9233 132.928 16.0376C133.048 16.1489 133.108 16.2939 133.108 16.4727C133.108 16.6543 133.048 16.8022 132.928 16.9165C132.808 17.0278 132.657 17.0835 132.476 17.0835C132.303 17.0835 132.156 17.0278 132.036 16.9165ZM134.54 14.2183V13.7876C134.54 12.8999 134.737 12.1938 135.129 11.6694C135.522 11.145 136.071 10.8828 136.777 10.8828C137.483 10.8828 138.028 11.1436 138.412 11.665C138.796 12.1865 138.988 12.894 138.988 13.7876V14.2183C138.988 14.7896 138.905 15.292 138.741 15.7256C138.577 16.1562 138.325 16.4961 137.986 16.7451C137.646 16.9941 137.237 17.1187 136.759 17.1187C136.053 17.1187 135.507 16.8579 135.12 16.3364C134.734 15.8149 134.54 15.1089 134.54 14.2183ZM135.604 14.2095C135.604 14.8628 135.706 15.3652 135.911 15.7168C136.119 16.0654 136.404 16.2397 136.764 16.2397C137.124 16.2397 137.408 16.064 137.616 15.7124C137.824 15.3608 137.928 14.8599 137.928 14.2095V13.792C137.928 13.1416 137.824 12.6421 137.616 12.2935C137.408 11.9419 137.124 11.7661 136.764 11.7661C136.404 11.7661 136.119 11.9419 135.911 12.2935C135.706 12.6421 135.604 13.1416 135.604 13.792V14.2095ZM140.406 15.0269V14.1567H142.155V12.3418H143.034V14.1567H144.792V15.0269H143.034V16.9165H142.155V15.0269H140.406Z" fill="white"/>
<path d="M49.1909 38.5L54.4243 23.1704H57.5127L62.7349 38.5H59.8262L58.5234 34.3672H53.2339L51.9312 38.5H49.1909ZM53.8291 32.3008H57.9395L55.9404 25.9219H55.8394L53.8291 32.3008ZM64.3916 38.5V26.6182H66.9971V28.2915H67.0981C67.3227 27.7824 67.7345 27.3444 68.3335 26.9775C68.9324 26.6107 69.6624 26.4272 70.5234 26.4272C71.7438 26.4272 72.7396 26.7979 73.5107 27.5391C74.2894 28.2728 74.6787 29.3097 74.6787 30.6499V38.5H72.0171V31.481C72.0171 29.6392 71.1972 28.7183 69.5576 28.7183C68.7715 28.7183 68.1538 28.9616 67.7046 29.4482C67.2628 29.9349 67.042 30.6387 67.042 31.5596V38.5H64.3916ZM76.9419 33.2217V31.874C76.9419 30.2194 77.3387 28.9017 78.1323 27.9209C78.9259 26.9401 80.0452 26.4497 81.4902 26.4497C82.3737 26.4497 83.1111 26.6257 83.7026 26.9775C84.2941 27.3219 84.6946 27.7712 84.9043 28.3252H85.0053V22.3618H87.6557V38.5H85.0615V36.6807H84.9604C84.7957 37.2347 84.4026 37.7026 83.7812 38.0845C83.1598 38.4663 82.3961 38.6572 81.4902 38.6572C80.0527 38.6572 78.9334 38.1706 78.1323 37.1973C77.3387 36.2165 76.9419 34.8913 76.9419 33.2217ZM79.6484 32.9521C79.6484 34.0602 79.8768 34.9325 80.3335 35.5688C80.7902 36.1978 81.4565 36.5122 82.3325 36.5122C83.1635 36.5122 83.8149 36.2052 84.2866 35.5913C84.7657 34.9699 85.0053 34.0977 85.0053 32.9746V32.0874C85.0053 31.0093 84.762 30.1595 84.2754 29.5381C83.7962 28.9167 83.1336 28.606 82.2876 28.606C81.4266 28.606 80.7714 28.9242 80.3222 29.5605C79.873 30.1969 79.6484 31.0617 79.6484 32.1548V32.9521ZM90.6938 38.5V26.6182H93.3442V28.1567H93.4453C93.8945 27.0112 94.8341 26.4385 96.2641 26.4385C96.5711 26.4385 96.8631 26.4647 97.1401 26.5171V28.8418C96.9529 28.7819 96.586 28.752 96.0395 28.752C94.2726 28.752 93.3891 29.6729 93.3891 31.5146V38.5H90.6938ZM98.1005 32.9634V32.1211C98.1005 31.013 98.2914 30.036 98.6733 29.1899C99.0626 28.3439 99.6653 27.6701 100.481 27.1685C101.297 26.6668 102.286 26.416 103.446 26.416C105.183 26.416 106.505 26.9326 107.411 27.9658C108.324 28.9915 108.781 30.3729 108.781 32.1099V32.9634C108.781 34.7453 108.328 36.1491 107.422 37.1748C106.516 38.193 105.191 38.7021 103.446 38.7021C101.702 38.7021 100.373 38.193 99.4594 37.1748C98.5535 36.1566 98.1005 34.7528 98.1005 32.9634ZM100.762 32.896C100.762 33.4051 100.807 33.8693 100.897 34.2886C100.987 34.7078 101.129 35.0972 101.324 35.4565C101.518 35.8084 101.795 36.0854 102.155 36.2876C102.514 36.4897 102.945 36.5908 103.446 36.5908C103.94 36.5908 104.367 36.4935 104.726 36.2988C105.086 36.0967 105.359 35.8159 105.546 35.4565C105.741 35.0972 105.879 34.7078 105.962 34.2886C106.052 33.8693 106.097 33.4051 106.097 32.896V32.2109C106.097 31.6943 106.052 31.2264 105.962 30.8071C105.879 30.3879 105.741 29.9985 105.546 29.6392C105.352 29.2798 105.075 29.0028 104.715 28.8081C104.363 28.606 103.94 28.5049 103.446 28.5049C102.952 28.5049 102.522 28.606 102.155 28.8081C101.795 29.0103 101.518 29.291 101.324 29.6504C101.129 30.0023 100.987 30.3916 100.897 30.8184C100.807 31.2376 100.762 31.7018 100.762 32.2109V32.896ZM111.482 24.6978C111.19 24.4282 111.044 24.0876 111.044 23.6758C111.044 23.264 111.19 22.9271 111.482 22.665C111.781 22.3955 112.159 22.2607 112.616 22.2607C113.095 22.2607 113.481 22.3955 113.773 22.665C114.072 22.9271 114.222 23.264 114.222 23.6758C114.222 24.0876 114.076 24.4282 113.784 24.6978C113.492 24.9598 113.103 25.0908 112.616 25.0908C112.159 25.0908 111.781 24.9598 111.482 24.6978ZM111.313 38.5V26.6182H113.964V38.5H111.313ZM116.519 33.2217V31.874C116.519 30.2194 116.916 28.9017 117.709 27.9209C118.503 26.9401 119.622 26.4497 121.067 26.4497C121.951 26.4497 122.688 26.6257 123.28 26.9775C123.871 27.3219 124.272 27.7712 124.481 28.3252H124.582V22.3618H127.233V38.5H124.639V36.6807H124.537C124.373 37.2347 123.98 37.7026 123.358 38.0845C122.737 38.4663 121.973 38.6572 121.067 38.6572C119.63 38.6572 118.51 38.1706 117.709 37.1973C116.916 36.2165 116.519 34.8913 116.519 33.2217ZM119.225 32.9521C119.225 34.0602 119.454 34.9325 119.911 35.5688C120.367 36.1978 121.034 36.5122 121.91 36.5122C122.741 36.5122 123.392 36.2052 123.864 35.5913C124.343 34.9699 124.582 34.0977 124.582 32.9746V32.0874C124.582 31.0093 124.339 30.1595 123.852 29.5381C123.373 28.9167 122.711 28.606 121.865 28.606C121.004 28.606 120.349 28.9242 119.899 29.5605C119.45 30.1969 119.225 31.0617 119.225 32.1548V32.9521Z" fill="white"/>
</svg>
