<svg width="100" height="67" viewBox="0 0 100 67" fill="none" xmlns="http://www.w3.org/2000/svg">
<path fill-rule="evenodd" clip-rule="evenodd" d="M65.2429 43.0016C61.0991 56.6963 48.3806 66.6667 33.3333 66.6667C14.9238 66.6667 0 51.7428 0 33.3333C0 14.9238 14.9238 0 33.3333 0C50.1694 0 64.0902 12.4819 66.3468 28.6967C64.5689 29.3721 62.2819 28.5952 61.6785 26.3377L61.4189 25.366C62.9612 24.8313 63.9266 23.2199 63.2228 21.6228C62.1956 19.2921 60.6905 17.3641 58.7073 15.8385C55.701 13.526 51.8276 12.3698 47.087 12.3698C43.0786 12.3698 39.6099 13.2563 36.6807 15.0292C33.7901 16.8021 31.5547 19.2687 29.9745 22.4292C28.3943 25.551 27.6042 29.1932 27.6042 33.3557C27.6042 37.4797 28.3943 41.1219 29.9745 44.2823C31.5547 47.4042 33.7901 49.8516 36.6807 51.6245C39.6099 53.3589 43.0786 54.226 47.087 54.226C51.8276 54.226 55.701 53.0891 58.7073 50.8151C60.649 49.3464 62.1325 47.5159 63.1577 45.3236C64.0649 43.3837 62.4298 41.3917 60.2883 41.3917C58.7177 41.3917 57.4184 42.5129 56.6645 43.8907C56.0449 45.0232 55.2034 45.9823 54.1401 46.7682C52.3672 48.0786 49.9969 48.7339 47.0292 48.7339C42.9823 48.7339 39.7833 47.3656 37.4323 44.6292C35.0812 41.8927 33.9057 38.1349 33.9057 33.3557C33.9057 28.538 35.0812 24.7609 37.4323 22.0245C39.7833 19.2495 42.9823 17.862 47.0292 17.862C49.9969 17.862 52.3672 18.5557 54.1401 19.9432C55.2199 20.7883 56.071 21.8121 56.6933 23.0145C56.9479 23.5066 57.274 23.9651 57.6582 24.3531C57.4774 24.5757 57.3398 24.8373 57.2599 25.1269L56.9076 26.404C55.9332 29.9363 50.8947 29.8508 50.0407 26.2874L49.6667 24.727C49.5038 24.0471 48.896 23.5677 48.1969 23.5677C47.2021 23.5677 46.4786 24.5122 46.7375 25.4727L51.0227 41.3662C51.2868 42.3459 52.1792 43.0238 53.1939 43.0155C54.1811 43.0074 55.0455 42.3511 55.3185 41.4024L55.6433 40.2738C56.6717 36.7006 61.7424 36.722 62.7406 40.3037L63.0314 41.3472C63.304 42.3253 64.1948 43.0018 65.2102 43.0018C65.2211 43.0018 65.232 43.0018 65.2429 43.0016Z" fill="#800080"/>
<path fill-rule="evenodd" clip-rule="evenodd" d="M100 33.3333C100 51.7428 85.0761 66.6667 66.6666 66.6667C55.6458 66.6667 45.8742 61.3182 39.8057 53.0754C41.9942 53.8425 44.4212 54.226 47.087 54.226C51.8276 54.226 55.701 53.0891 58.7073 50.8151C60.649 49.3464 62.1324 47.5159 63.1577 45.3236C64.0649 43.3837 62.4298 41.3917 60.2882 41.3917C58.7177 41.3917 57.4184 42.5129 56.6645 43.8907C56.0448 45.0232 55.2034 45.9823 54.1401 46.7682C52.3672 48.0786 49.9968 48.7339 47.0291 48.7339C42.9823 48.7339 39.7833 47.3656 37.4323 44.6292C35.0812 41.8927 33.9057 38.1349 33.9057 33.3557C33.9057 28.538 35.0812 24.7609 37.4323 22.0245C39.7833 19.2495 42.9823 17.862 47.0291 17.862C49.9968 17.862 52.3672 18.5557 54.1401 19.9432C55.2199 20.7883 56.0709 21.8121 56.6932 23.0145C56.9479 23.5066 57.274 23.9651 57.6582 24.3531C57.4774 24.5757 57.3398 24.8373 57.2599 25.1269L56.9076 26.404C55.9332 29.9363 50.8947 29.8508 50.0407 26.2874L49.6667 24.727C49.5038 24.0471 48.8959 23.5677 48.1969 23.5677C47.2021 23.5677 46.4785 24.5122 46.7375 25.4727L51.0226 41.3662C51.2868 42.3459 52.1792 43.0238 53.1939 43.0155C54.1811 43.0074 55.0455 42.3511 55.3185 41.4024L55.6433 40.2738C56.6717 36.7006 61.7424 36.722 62.7405 40.3037L63.0314 41.3472C63.3039 42.3253 64.1948 43.0018 65.2101 43.0018C66.2289 43.0018 67.1219 42.3208 67.3914 41.3383L71.7428 25.4736C72.0059 24.5144 71.284 23.5677 70.2893 23.5677C69.5922 23.5677 68.986 24.0458 68.8236 24.7237L68.4578 26.2498C67.6122 29.7785 62.6154 29.8432 61.6785 26.3377L61.4189 25.366C62.9612 24.8313 63.9266 23.2199 63.2227 21.6228C62.1956 19.2921 60.6905 17.3641 58.7073 15.8385C55.701 13.526 51.8276 12.3698 47.087 12.3698C44.4396 12.3698 42.0277 12.7565 39.8511 13.5298C45.9228 5.32185 55.6732 0 66.6666 0C85.0761 0 100 14.9238 100 33.3333Z" fill="#5976FF"/>
</svg>
