<svg width="24" height="24" viewBox="0 0 24 24" fill="none" xmlns="http://www.w3.org/2000/svg">
<path d="M20.7825 3.2175C20.6813 3.11675 20.5534 3.047 20.4139 3.01644C20.2744 2.98588 20.1291 2.99579 19.995 3.045L3.495 9.045C3.3527 9.09897 3.23019 9.19496 3.14374 9.32021C3.05729 9.44546 3.01099 9.59405 3.01099 9.74625C3.01099 9.89844 3.05729 10.047 3.14374 10.1723C3.23019 10.2975 3.3527 10.3935 3.495 10.4475L9.9375 13.02L14.6925 8.25L15.75 9.3075L10.9725 14.085L13.5525 20.5275C13.6081 20.667 13.7043 20.7867 13.8286 20.8709C13.953 20.9552 14.0998 21.0001 14.25 21C14.4016 20.9969 14.5486 20.9479 14.6718 20.8596C14.795 20.7712 14.8885 20.6476 14.94 20.505L20.94 4.005C20.9911 3.8723 21.0034 3.72782 20.9755 3.58839C20.9477 3.44896 20.8807 3.32033 20.7825 3.2175Z" fill="#FF5959"/>
</svg>
