<svg width="24" height="24" viewBox="0 0 24 24" fill="none" xmlns="http://www.w3.org/2000/svg">
<path d="M16.6667 4.5L16.6292 4.53094C16.4458 4.51031 16.225 4.5 16 4.5H10.6667C9.97917 4.5 9.3125 4.5975 8.675 4.78125C8.67083 4.6875 8.66667 4.59469 8.66667 4.5C8.66667 2.01469 10.4208 0 12.6667 0C14.875 0 16.6667 2.01469 16.6667 4.5ZM16 6C16.1458 6 16.2542 6.00469 16.4333 6.01406C16.6125 6.02813 16.7875 6.04688 16.9583 6.075C17.6917 5.11406 18.7833 4.5 20 4.5H21.3333L20.55 8.02031C21.2125 8.71406 21.7458 9.55781 22.1125 10.5H22.6667C23.4042 10.5 24 11.1703 24 12V16.5C24 17.3297 23.4042 18 22.6667 18H21.3333C20.9542 18.5672 20.5042 19.0734 20 19.5V22.5C20 23.3297 19.4042 24 18.6667 24H17.3333C16.5958 24 16 23.3297 16 22.5V21H10.6667V22.5C10.6667 23.3297 10.0708 24 9.33333 24H8C7.2625 24 6.66667 23.3297 6.66667 22.5V19.5C5.2125 18.2719 4.22083 16.3969 4.03292 14.25H2.83333C1.26833 14.25 0 12.825 0 11.0625C0 9.3 1.26833 7.875 2.83333 7.875H3C3.55208 7.875 4 8.37656 4 9C4 9.62344 3.55208 10.125 3 10.125H2.83333C2.37292 10.125 2 10.5047 2 11.0625C2 11.5781 2.37292 12 2.83333 12H4.13333C4.6375 9.19687 6.5375 6.96094 8.97917 6.24375C9.51667 6.08437 10.0458 6 10.6667 6H16ZM17.6667 11.25C17.1125 11.25 16.6667 11.7516 16.6667 12.375C16.6667 12.9984 17.1125 13.5 17.6667 13.5C18.2208 13.5 18.6667 12.9984 18.6667 12.375C18.6667 11.7516 18.2208 11.25 17.6667 11.25Z" fill="#800080"/>
</svg>
