<svg width="24" height="24" viewBox="0 0 24 24" fill="none" xmlns="http://www.w3.org/2000/svg">
<path d="M13.0063 3.08881C12.8309 3.08881 12.6883 3.23137 12.6883 3.40705C12.6883 3.42337 12.6953 3.43753 12.6977 3.45337H12.6883V10.9985C12.6883 11.1742 12.8309 11.3167 13.0063 11.3167H20.5512V11.3074C20.567 11.3098 20.5812 11.3167 20.5977 11.3167C20.7732 11.3167 20.9157 11.1742 20.9157 10.9985C20.8706 6.64969 17.3551 3.13417 13.0063 3.08881Z" fill="#00F076"/>
<path d="M19.0764 12.8304C19.0764 12.6547 18.9341 12.5122 18.7584 12.5122H11.8226C11.7383 12.5121 11.6574 12.4785 11.5978 12.4189C11.5381 12.3592 11.5046 12.2783 11.5046 12.1939V5.2836H11.4953C11.4977 5.26776 11.5046 5.2536 11.5046 5.23728C11.5046 5.06136 11.3621 4.91904 11.1864 4.91904C11.1787 4.91904 11.1725 4.92288 11.165 4.92336V4.9212C11.1367 4.92096 11.1086 4.91904 11.0803 4.91904C6.66431 4.91904 3.08423 8.49912 3.08423 12.9151C3.08423 17.3311 6.66431 20.9112 11.0803 20.9112C15.4963 20.9112 19.0764 17.3311 19.0764 12.9151C19.0764 12.8897 19.0752 12.8645 19.0747 12.8388C19.0747 12.8357 19.0764 12.8333 19.0764 12.8304Z" fill="#00F076"/>
</svg>
