<svg width="110" height="126" viewBox="0 0 110 126" fill="none" xmlns="http://www.w3.org/2000/svg">
<path d="M31.9943 4.4C40.5193 2.08214 49.5786 0 55 0C60.4214 0 69.4807 2.08214 78.0057 4.4C86.7271 6.75714 95.5193 9.54642 100.689 11.2357C102.851 11.9495 104.767 13.2586 106.218 15.0126C107.669 16.7666 108.596 18.8944 108.892 21.1514C113.575 56.3278 102.709 82.3978 89.5243 99.6442C83.9334 107.022 77.2671 113.519 69.7479 118.918C67.1478 120.786 64.3931 122.429 61.5136 123.828C59.3136 124.866 56.9486 125.714 55 125.714C53.0514 125.714 50.6943 124.866 48.4864 123.828C45.6069 122.429 42.8521 120.786 40.2522 118.918C32.7331 113.519 26.0667 107.022 20.4757 99.6442C7.29146 82.3978 -3.57496 56.3278 1.1079 21.1514C1.40401 18.8944 2.33081 16.7666 3.78182 15.0126C5.23282 13.2586 7.14918 11.9495 9.31075 11.2357C16.8158 8.77492 24.3792 6.49569 31.9943 4.4V4.4Z" fill="#5976FF" fill-opacity="0.5"/>
<path d="M37.0268 17.1875C43.687 15.3767 50.7645 13.75 55 13.75C59.2355 13.75 66.3131 15.3767 72.9732 17.1875C79.7868 19.029 86.6557 21.2081 90.6947 22.5279C92.3835 23.0856 93.8806 24.1083 95.0142 25.4786C96.1478 26.8489 96.8719 28.5112 97.1032 30.2745C100.762 57.7561 92.2723 78.1233 81.9721 91.597C77.6043 97.3609 72.3961 102.437 66.5218 106.655C64.4905 108.114 62.3383 109.398 60.0887 110.491C58.37 111.301 56.5223 111.964 55 111.964C53.4777 111.964 51.6362 111.301 49.9113 110.491C47.6616 109.398 45.5095 108.114 43.4782 106.655C37.604 102.436 32.3959 97.3607 28.0279 91.597C17.7277 78.1233 9.23832 57.7561 12.8968 30.2745C13.1281 28.5112 13.8522 26.8489 14.9858 25.4786C16.1194 24.1083 17.6165 23.0856 19.3053 22.5279C25.1686 20.6054 31.0775 18.8248 37.0268 17.1875V17.1875Z" fill="#5976FF"/>
<path fill-rule="evenodd" clip-rule="evenodd" d="M75.3583 48.2935C73.8241 46.7593 71.3367 46.7593 69.8025 48.2935L49.1037 68.9923L40.0993 59.988C38.5651 58.4538 36.0777 58.4538 34.5435 59.988C33.0093 61.5222 33.0093 64.0096 34.5435 65.5438L45.7028 76.7031C45.8572 76.9493 46.0415 77.182 46.2556 77.3962C47.7898 78.9304 50.2773 78.9304 51.8115 77.3962L75.3583 53.8494C76.8925 52.3152 76.8925 49.8277 75.3583 48.2935Z" fill="white"/>
</svg>
