<svg width="160" height="50" viewBox="0 0 160 50" fill="none" xmlns="http://www.w3.org/2000/svg">
<path d="M155 0H5C2.23858 0 0 2.23858 0 5V45C0 47.7614 2.23858 50 5 50H155C157.761 50 160 47.7614 160 45V5C160 2.23858 157.761 0 155 0Z" fill="black"/>
<path fill-rule="evenodd" clip-rule="evenodd" d="M31.4359 8.5C31.7042 10.3222 30.9625 12.1073 29.9841 13.3703C28.9374 14.725 27.1331 15.7728 25.385 15.7181C25.0658 13.9736 25.8829 12.1761 26.8771 10.9678C27.9677 9.6342 29.8368 8.6111 31.4359 8.5ZM36.6874 34.1481C37.5886 32.7669 37.9253 32.0702 38.6249 30.5108C33.5365 28.5758 32.7212 21.3418 37.757 18.5653C36.221 16.639 34.0625 15.5225 32.0251 15.5225C30.557 15.5225 29.5512 15.9056 28.6367 16.2539C27.8747 16.5441 27.1762 16.8102 26.3265 16.8102C25.4084 16.8102 24.5954 16.5186 23.7441 16.2134C22.8086 15.878 21.8269 15.526 20.6087 15.526C18.3223 15.526 15.8886 16.923 14.3456 19.3114C12.1766 22.6753 12.5466 28.9991 16.0639 34.3862C17.3211 36.3142 19.0008 38.4804 21.1979 38.4998C22.1095 38.5088 22.7161 38.2368 23.3726 37.9423C24.1239 37.6053 24.9406 37.239 26.3546 37.2315C27.7769 37.223 28.5807 37.5937 29.3221 37.9357C29.9617 38.2307 30.5549 38.5043 31.4587 38.4945C33.6575 38.4769 35.4302 36.0761 36.6874 34.1481Z" fill="white"/>
<path d="M51.1592 10.5015V16.5H53.2729C55.2241 16.5 55.9404 15.23 55.9404 13.4897C55.9404 11.7319 55.2065 10.5015 53.2729 10.5015H51.1592ZM52.2227 11.3892H53.1455C54.4243 11.3892 54.8462 12.2593 54.8462 13.5073C54.8462 14.9883 54.2617 15.6123 53.1455 15.6123H52.2227V11.3892ZM58.5105 13.1162C58.5105 11.9033 59.1258 11.2837 59.9563 11.2837C60.7913 11.2837 61.3977 11.9033 61.3977 13.1162V13.9292C61.3977 15.1421 60.7913 15.7178 59.9563 15.7178C59.1258 15.7178 58.5105 15.1421 58.5105 13.9292V13.1162ZM57.4339 13.9248C57.4339 15.6211 58.3919 16.6187 59.9519 16.6187C61.512 16.6187 62.4788 15.6211 62.4788 13.9248V13.125C62.4788 11.4243 61.5252 10.3828 59.9607 10.3828C58.4051 10.3828 57.4339 11.4199 57.4339 13.125V13.9248ZM66.2354 16.5L67.3912 12.1802H67.4307L68.5865 16.5H69.5577L71.1617 10.5015H70.0235L69.0303 14.9048H68.9864L67.8921 10.5015H66.9341L65.8355 14.9048H65.796L64.7984 10.5015H63.6602L65.2598 16.5H66.2354ZM73.5824 16.5V12.29H73.6131L76.3949 16.5H77.3045V10.5015H76.3114V14.6982H76.2762L73.5033 10.5015H72.5848V16.5H73.5824ZM83.0255 15.5859H80.4152V10.5015H79.3517V16.5H83.0255V15.5859ZM85.2704 13.1162C85.2704 11.9033 85.8856 11.2837 86.7162 11.2837C87.5512 11.2837 88.1576 11.9033 88.1576 13.1162V13.9292C88.1576 15.1421 87.5512 15.7178 86.7162 15.7178C85.8856 15.7178 85.2704 15.1421 85.2704 13.9292V13.1162ZM84.1937 13.9248C84.1937 15.6211 85.1518 16.6187 86.7118 16.6187C88.2719 16.6187 89.2387 15.6211 89.2387 13.9248V13.125C89.2387 11.4243 88.2851 10.3828 86.7206 10.3828C85.1649 10.3828 84.1937 11.4199 84.1937 13.125V13.9248ZM91.4264 16.5L91.9362 14.8828H94.006L94.5158 16.5H95.654L93.6105 10.5015H92.402L90.3542 16.5H91.4264ZM92.9953 11.5781L93.7775 14.0742H92.1691L92.9557 11.5781H92.9953ZM97.1123 10.5015V16.5H99.226C101.177 16.5 101.894 15.23 101.894 13.4897C101.894 11.7319 101.16 10.5015 99.226 10.5015H97.1123ZM98.1757 11.3892H99.0986C100.377 11.3892 100.799 12.2593 100.799 13.5073C100.799 14.9883 100.215 15.6123 99.0986 15.6123H98.1757V11.3892ZM106.968 13.1162C106.968 11.9033 107.583 11.2837 108.414 11.2837C109.249 11.2837 109.855 11.9033 109.855 13.1162V13.9292C109.855 15.1421 109.249 15.7178 108.414 15.7178C107.583 15.7178 106.968 15.1421 106.968 13.9292V13.1162ZM105.891 13.9248C105.891 15.6211 106.849 16.6187 108.409 16.6187C109.969 16.6187 110.936 15.6211 110.936 13.9248V13.125C110.936 11.4243 109.982 10.3828 108.418 10.3828C106.862 10.3828 105.891 11.4199 105.891 13.125V13.9248ZM113.735 16.5V12.29H113.765L116.547 16.5H117.457V10.5015H116.464V14.6982H116.429L113.656 10.5015H112.737V16.5H113.735ZM124.219 16.5V11.4023H125.963V10.5015H121.424V11.4023H123.164V16.5H124.219ZM132.22 16.5V10.5015H131.157V12.9756H128.485V10.5015H127.422V16.5H128.485V13.8721H131.157V16.5H132.22ZM138.047 15.6123H135.318V13.8765H137.884V13.0371H135.318V11.3892H138.047V10.5015H134.259V16.5H138.047V15.6123Z" fill="white"/>
<path d="M49.1909 38.5L54.4243 23.1704H57.5127L62.7349 38.5H59.8262L58.5234 34.3672H53.2339L51.9312 38.5H49.1909ZM53.8291 32.3008H57.9395L55.9404 25.9219H55.8394L53.8291 32.3008ZM64.4028 42.5093V26.6069H66.9971V28.3252H67.0981C67.3452 27.7562 67.772 27.3032 68.3784 26.9663C68.9848 26.6219 69.7335 26.4497 70.6245 26.4497C71.9796 26.4497 73.0615 26.9251 73.8701 27.876C74.6862 28.8268 75.0942 30.152 75.0942 31.8516V33.2778C75.0942 34.9774 74.6862 36.2988 73.8701 37.2422C73.0615 38.1855 71.9647 38.6572 70.5796 38.6572C69.7111 38.6572 68.9923 38.4888 68.4233 38.1519C67.8543 37.8149 67.435 37.3732 67.1655 36.8267H67.0532V42.5093H64.4028ZM67.0532 33.1318C67.0532 34.1126 67.2965 34.9212 67.7832 35.5576C68.2773 36.1865 68.9399 36.501 69.771 36.501C70.5646 36.501 71.1972 36.209 71.6689 35.625C72.1481 35.0335 72.3877 34.1763 72.3877 33.0532V32.0537C72.3877 30.9456 72.1518 30.0959 71.6802 29.5044C71.2085 28.9054 70.5571 28.606 69.7261 28.606C68.9025 28.606 68.2511 28.9092 67.772 29.5156C67.2928 30.1146 67.0532 30.9157 67.0532 31.9189V33.1318ZM77.4248 42.5093V26.6069H80.019V28.3252H80.1201C80.3671 27.7562 80.7939 27.3032 81.4004 26.9663C82.0068 26.6219 82.7555 26.4497 83.6464 26.4497C85.0016 26.4497 86.0835 26.9251 86.8921 27.876C87.7081 28.8268 88.1162 30.152 88.1162 31.8516V33.2778C88.1162 34.9774 87.7081 36.2988 86.8921 37.2422C86.0835 38.1855 84.9866 38.6572 83.6015 38.6572C82.733 38.6572 82.0143 38.4888 81.4453 38.1519C80.8763 37.8149 80.457 37.3732 80.1875 36.8267H80.0752V42.5093H77.4248ZM80.0752 33.1318C80.0752 34.1126 80.3185 34.9212 80.8051 35.5576C81.2993 36.1865 81.9619 36.501 82.7929 36.501C83.5866 36.501 84.2192 36.209 84.6909 35.625C85.17 35.0335 85.4096 34.1763 85.4096 33.0532V32.0537C85.4096 30.9456 85.1738 30.0959 84.7021 29.5044C84.2304 28.9054 83.5791 28.606 82.748 28.606C81.9244 28.606 81.2731 28.9092 80.7939 29.5156C80.3147 30.1146 80.0752 30.9157 80.0752 31.9189V33.1318ZM93.9003 34.21H96.5395C96.5994 34.8913 96.9213 35.4603 97.5053 35.917C98.0893 36.3662 98.8866 36.5908 99.8974 36.5908C100.856 36.5908 101.604 36.3849 102.143 35.9731C102.69 35.5614 102.963 35.0036 102.963 34.2998C102.963 33.7458 102.769 33.304 102.379 32.9746C101.997 32.6452 101.391 32.3794 100.56 32.1772L98.1005 31.582C97.5689 31.4622 97.0823 31.2975 96.6405 31.0879C96.2063 30.8708 95.8058 30.6012 95.4389 30.2793C95.0795 29.9499 94.7988 29.5418 94.5966 29.0552C94.3945 28.5685 94.2934 28.022 94.2934 27.4155C94.2934 26.4647 94.5517 25.6374 95.0683 24.9336C95.5849 24.2223 96.2625 23.6945 97.101 23.3501C97.9395 23.0057 98.8717 22.8335 99.8974 22.8335C100.931 22.8335 101.863 23.0094 102.694 23.3613C103.532 23.7132 104.199 24.2373 104.693 24.9336C105.194 25.6224 105.453 26.4235 105.468 27.3369H102.885C102.832 26.6706 102.548 26.1203 102.031 25.686C101.515 25.2518 100.796 25.0347 99.8749 25.0347C99.0139 25.0347 98.3214 25.2293 97.7973 25.6187C97.2807 26.0005 97.0224 26.5283 97.0224 27.2021C97.0224 28.1979 97.7262 28.8605 99.1337 29.1899L101.604 29.7852C102.218 29.9274 102.757 30.1034 103.222 30.313C103.686 30.5226 104.109 30.7922 104.491 31.1216C104.88 31.451 105.176 31.8628 105.378 32.3569C105.58 32.8511 105.681 33.4201 105.681 34.064C105.681 35.5464 105.135 36.7069 104.041 37.5454C102.956 38.384 101.511 38.8032 99.7065 38.8032C98.8754 38.8032 98.123 38.7096 97.4491 38.5225C96.7828 38.3353 96.2325 38.092 95.7983 37.7925C95.3715 37.493 95.0121 37.1411 94.7201 36.7368C94.4281 36.325 94.2185 35.9132 94.0912 35.5015C93.9714 35.0822 93.9078 34.6517 93.9003 34.21ZM107.136 28.7856V26.708H108.843V23.7432H111.426V26.708H113.739V28.7856H111.426V34.8838C111.426 35.5052 111.557 35.932 111.819 36.1641C112.088 36.3887 112.556 36.501 113.223 36.501C113.515 36.501 113.709 36.4935 113.807 36.4785V38.4888C113.425 38.5487 113.013 38.5786 112.571 38.5786C111.605 38.5786 110.845 38.4551 110.291 38.208C109.737 37.9609 109.348 37.5978 109.123 37.1187C108.906 36.632 108.798 35.9769 108.798 35.1533V28.7856H107.136ZM115.272 32.9634V32.1211C115.272 31.013 115.463 30.036 115.845 29.1899C116.234 28.3439 116.837 27.6701 117.653 27.1685C118.469 26.6668 119.458 26.416 120.618 26.416C122.355 26.416 123.676 26.9326 124.582 27.9658C125.496 28.9915 125.953 30.3729 125.953 32.1099V32.9634C125.953 34.7453 125.5 36.1491 124.594 37.1748C123.688 38.193 122.363 38.7021 120.618 38.7021C118.874 38.7021 117.545 38.193 116.631 37.1748C115.725 36.1566 115.272 34.7528 115.272 32.9634ZM117.934 32.896C117.934 33.4051 117.979 33.8693 118.069 34.2886C118.159 34.7078 118.301 35.0972 118.495 35.4565C118.69 35.8084 118.967 36.0854 119.327 36.2876C119.686 36.4897 120.116 36.5908 120.618 36.5908C121.112 36.5908 121.539 36.4935 121.898 36.2988C122.258 36.0967 122.531 35.8159 122.718 35.4565C122.913 35.0972 123.051 34.7078 123.134 34.2886C123.224 33.8693 123.268 33.4051 123.268 32.896V32.2109C123.268 31.6943 123.224 31.2264 123.134 30.8071C123.051 30.3879 122.913 29.9985 122.718 29.6392C122.523 29.2798 122.246 29.0028 121.887 28.8081C121.535 28.606 121.112 28.5049 120.618 28.5049C120.124 28.5049 119.693 28.606 119.327 28.8081C118.967 29.0103 118.69 29.291 118.495 29.6504C118.301 30.0023 118.159 30.3916 118.069 30.8184C117.979 31.2376 117.934 31.7018 117.934 32.2109V32.896ZM128.384 38.5V26.6182H131.035V28.1567H131.136C131.585 27.0112 132.524 26.4385 133.954 26.4385C134.261 26.4385 134.553 26.4647 134.83 26.5171V28.8418C134.643 28.7819 134.276 28.752 133.73 28.752C131.963 28.752 131.079 29.6729 131.079 31.5146V38.5H128.384ZM135.791 33.0869V32.0874C135.791 30.3504 136.248 28.9728 137.161 27.9546C138.074 26.9289 139.336 26.416 140.946 26.416C142.585 26.416 143.851 26.9289 144.742 27.9546C145.64 28.9803 146.089 30.3542 146.089 32.0762V33.1431H138.408V33.5137C138.408 34.3896 138.64 35.1234 139.104 35.7148C139.568 36.3063 140.231 36.6021 141.092 36.6021C141.773 36.6021 142.305 36.4523 142.686 36.1528C143.076 35.8534 143.315 35.4753 143.405 35.0186H145.966C145.928 35.3555 145.842 35.6886 145.707 36.0181C145.58 36.3475 145.389 36.6769 145.135 37.0063C144.88 37.3358 144.573 37.624 144.214 37.8711C143.862 38.1182 143.416 38.3203 142.877 38.4775C142.338 38.6273 141.747 38.7021 141.103 38.7021C139.411 38.7021 138.101 38.2043 137.172 37.2085C136.251 36.2052 135.791 34.8314 135.791 33.0869ZM138.408 31.3574H143.506V31.335C143.506 30.4814 143.278 29.7889 142.821 29.2573C142.364 28.7257 141.747 28.46 140.968 28.46C140.182 28.46 139.557 28.7295 139.093 29.2686C138.636 29.8001 138.408 30.4889 138.408 31.335V31.3574Z" fill="white"/>
</svg>
