<svg width="32" height="32" viewBox="0 0 32 32" fill="none" xmlns="http://www.w3.org/2000/svg">
<path d="M6.64402 9.5959C8.25522 9.5959 9.56135 8.28976 9.56135 6.67856C9.56135 5.06736 8.25522 3.76123 6.64402 3.76123C5.03282 3.76123 3.72668 5.06736 3.72668 6.67856C3.72668 8.28976 5.03282 9.5959 6.64402 9.5959Z" fill="#0E76A8"/>
<path d="M12.316 11.8067V27.9921H17.3413V19.9881C17.3413 17.8761 17.7386 15.8307 20.3573 15.8307C22.94 15.8307 22.972 18.2454 22.972 20.1214V27.9934H28V19.1174C28 14.7574 27.0613 11.4067 21.9653 11.4067C19.5186 11.4067 17.8786 12.7494 17.208 14.0201H17.14V11.8067H12.316ZM4.12665 11.8067H9.15998V27.9921H4.12665V11.8067Z" fill="#0E76A8"/>
</svg>
