<svg width="32" height="32" viewBox="0 0 32 32" fill="none" xmlns="http://www.w3.org/2000/svg">
<path d="M31.524 6.58244C30.4107 7.07578 29.2147 7.40911 27.9573 7.55978C29.2547 6.7835 30.2253 5.56173 30.688 4.12244C29.4691 4.84643 28.1351 5.35604 26.744 5.62911C25.8085 4.63026 24.5694 3.96821 23.2191 3.74574C21.8688 3.52327 20.4828 3.75283 19.2763 4.39878C18.0698 5.04473 17.1104 6.07093 16.5469 7.31805C15.9834 8.56517 15.8474 9.96344 16.16 11.2958C13.6902 11.1718 11.2742 10.5298 9.06856 9.41165C6.86296 8.29346 4.91712 6.72399 3.35733 4.80511C2.824 5.72511 2.51733 6.79178 2.51733 7.92778C2.51673 8.95044 2.76857 9.95743 3.2505 10.8594C3.73243 11.7614 4.42954 12.5305 5.28 13.0984C4.2937 13.0671 3.32916 12.8006 2.46666 12.3211V12.4011C2.46656 13.8354 2.96271 15.2256 3.87091 16.3358C4.77911 17.4459 6.04342 18.2077 7.44933 18.4918C6.53437 18.7394 5.57511 18.7759 4.644 18.5984C5.04066 19.8326 5.81332 20.9118 6.85382 21.685C7.89431 22.4582 9.15055 22.8867 10.4467 22.9104C8.24644 24.6377 5.52918 25.5746 2.732 25.5704C2.2365 25.5706 1.74143 25.5416 1.24933 25.4838C4.08863 27.3093 7.39378 28.2782 10.7693 28.2744C22.196 28.2744 28.4427 18.8104 28.4427 10.6024C28.4427 10.3358 28.436 10.0664 28.424 9.79978C29.6391 8.92108 30.6879 7.83297 31.5213 6.58644L31.524 6.58244Z" fill="#1DA1F2"/>
</svg>
